<?xml version="1.0" encoding="utf-8"?>
<!-- Svg Vector Icons : http://www.onlinewebfonts.com/icon -->
<!DOCTYPE svg PUBLIC "-//W3C//DTD SVG 1.1//EN" "http://www.w3.org/Graphics/SVG/1.1/DTD/svg11.dtd">
<svg version="1.1" xmlns="http://www.w3.org/2000/svg" xmlns:xlink="http://www.w3.org/1999/xlink" x="0px" y="0px" viewBox="0 0 1000 1000" enable-background="new 0 0 1000 1000" xml:space="preserve">
<metadata> Svg Vector Icons : http://www.onlinewebfonts.com/icon </metadata>
<g><g><path d="M780,587.5v175c0,43.4-15.4,80.5-46.2,111.3C703,904.6,665.9,920,622.5,920h-455c-43.4,0-80.5-15.4-111.3-46.2C25.4,843,10,805.9,10,762.5v-455c0-43.4,15.4-80.5,46.2-111.3C87,165.4,124.1,150,167.5,150h385c5.1,0,9.3,1.6,12.6,4.9c3.3,3.3,4.9,7.5,4.9,12.6v35c0,5.1-1.6,9.3-4.9,12.6c-3.3,3.3-7.5,4.9-12.6,4.9h-385c-24.1,0-44.7,8.6-61.8,25.7C88.6,262.8,80,283.4,80,307.5v455c0,24.1,8.6,44.7,25.7,61.8c17.1,17.1,37.7,25.7,61.8,25.7h455c24.1,0,44.7-8.6,61.8-25.7c17.1-17.1,25.7-37.7,25.7-61.8v-175c0-5.1,1.6-9.3,4.9-12.6c3.3-3.3,7.5-4.9,12.6-4.9h35c5.1,0,9.3,1.6,12.6,4.9C778.4,578.2,780,582.4,780,587.5L780,587.5z M990,115v280c0,9.5-3.5,17.7-10.4,24.6c-6.9,6.9-15.1,10.4-24.6,10.4c-9.5,0-17.7-3.5-24.6-10.4l-96.3-96.2L477.6,679.9c-3.6,3.6-7.8,5.5-12.6,5.5s-8.9-1.8-12.6-5.5l-62.3-62.3c-3.6-3.6-5.5-7.8-5.5-12.6s1.8-8.9,5.5-12.6l356.6-356.6l-96.2-96.2c-6.9-6.9-10.4-15.1-10.4-24.6s3.5-17.7,10.4-24.6C657.3,83.5,665.5,80,675,80h280c9.5,0,17.7,3.5,24.6,10.4C986.5,97.3,990,105.5,990,115L990,115z"/></g></g>
</svg>