<?xml version="1.0" encoding="UTF-8"?>
<svg width="1000" height="600" xmlns="http://www.w3.org/2000/svg">
  <defs>
    <style>
      .title { font-family: Arial, sans-serif; font-size: 22px; font-weight: bold; fill: #666666; }
      .axis-label { font-family: Arial, sans-serif; font-size: 16px; font-weight: bold; fill: #666666; }
      .tick-label { font-family: Arial, sans-serif; font-size: 14px; font-weight: bold; fill: #666666; }
      .bar-label { font-family: Arial, sans-serif; font-size: 13px; font-weight: bold; fill: #666666; text-anchor: middle; }
    </style>
  </defs>
  
  <!-- Background (transparent) -->
  <rect width="1000" height="600" fill="none"/>
  
  <!-- Title -->
  <text x="500" y="35" class="title" text-anchor="middle">Постов по годам блога (март → март)</text>
  
  <!-- Grid lines -->
  <line x1="80" y1="520.0" x2="920" y2="520.0" stroke="#888888" stroke-width="1" opacity="0.7"/>
  <text x="65" y="525.0" class="tick-label" text-anchor="end">0</text>
  <line x1="80" y1="471.54185022026434" x2="920" y2="471.54185022026434" stroke="#888888" stroke-width="1" opacity="0.7"/>
  <text x="65" y="476.54185022026434" class="tick-label" text-anchor="end">25</text>
  <line x1="80" y1="423.0837004405287" x2="920" y2="423.0837004405287" stroke="#888888" stroke-width="1" opacity="0.7"/>
  <text x="65" y="428.0837004405287" class="tick-label" text-anchor="end">50</text>
  <line x1="80" y1="374.62555066079295" x2="920" y2="374.62555066079295" stroke="#888888" stroke-width="1" opacity="0.7"/>
  <text x="65" y="379.62555066079295" class="tick-label" text-anchor="end">75</text>
  <line x1="80" y1="326.1674008810573" x2="920" y2="326.1674008810573" stroke="#888888" stroke-width="1" opacity="0.7"/>
  <text x="65" y="331.1674008810573" class="tick-label" text-anchor="end">100</text>
  <line x1="80" y1="277.70925110132157" x2="920" y2="277.70925110132157" stroke="#888888" stroke-width="1" opacity="0.7"/>
  <text x="65" y="282.70925110132157" class="tick-label" text-anchor="end">125</text>
  <line x1="80" y1="229.2511013215859" x2="920" y2="229.2511013215859" stroke="#888888" stroke-width="1" opacity="0.7"/>
  <text x="65" y="234.2511013215859" class="tick-label" text-anchor="end">150</text>
  <line x1="80" y1="180.79295154185024" x2="920" y2="180.79295154185024" stroke="#888888" stroke-width="1" opacity="0.7"/>
  <text x="65" y="185.79295154185024" class="tick-label" text-anchor="end">175</text>
  <line x1="80" y1="132.33480176211458" x2="920" y2="132.33480176211458" stroke="#888888" stroke-width="1" opacity="0.7"/>
  <text x="65" y="137.33480176211458" class="tick-label" text-anchor="end">200</text>
  <line x1="80" y1="83.87665198237886" x2="920" y2="83.87665198237886" stroke="#888888" stroke-width="1" opacity="0.7"/>
  <text x="65" y="88.87665198237886" class="tick-label" text-anchor="end">225</text>
  
  <!-- Axes -->
  <line x1="80" y1="80" x2="80" y2="520" stroke="#666666" stroke-width="2"/>
  <line x1="80" y1="520" x2="920" y2="520" stroke="#666666" stroke-width="2"/>
  
  <!-- Axis labels -->
  <text x="25" y="300" class="axis-label" text-anchor="middle" transform="rotate(-90, 25, 300)">Количество постов</text>
  <text x="500" y="585" class="axis-label" text-anchor="middle">Год блога</text>
  
  <!-- Bars -->
  <rect x="89" y="446.3436123348018" width="42" height="73.65638766519824" fill="#4A90E2" opacity="0.9" stroke="white" stroke-width="1"/>
  <text x="110" y="545" class="bar-label">2009</text>
  <text x="110" y="438.3436123348018" class="bar-label">38</text>
  <rect x="140" y="326.1674008810573" width="42" height="193.8325991189427" fill="#4A90E2" opacity="0.9" stroke="white" stroke-width="1"/>
  <text x="161" y="545" class="bar-label">2010</text>
  <text x="161" y="318.1674008810573" class="bar-label">100</text>
  <rect x="191" y="80.0" width="42" height="440.0" fill="#E74C3C" opacity="0.9" stroke="white" stroke-width="1"/>
  <text x="212" y="545" class="bar-label">2011</text>
  <text x="212" y="72.0" class="bar-label">227</text>
  <rect x="242" y="320.352422907489" width="42" height="199.647577092511" fill="#4A90E2" opacity="0.9" stroke="white" stroke-width="1"/>
  <text x="263" y="545" class="bar-label">2012</text>
  <text x="263" y="312.352422907489" class="bar-label">103</text>
  <rect x="293" y="448.2819383259912" width="42" height="71.71806167400881" fill="#4A90E2" opacity="0.9" stroke="white" stroke-width="1"/>
  <text x="314" y="545" class="bar-label">2013</text>
  <text x="314" y="440.2819383259912" class="bar-label">37</text>
  <rect x="344" y="465.726872246696" width="42" height="54.27312775330397" fill="#4A90E2" opacity="0.9" stroke="white" stroke-width="1"/>
  <text x="365" y="545" class="bar-label">2014</text>
  <text x="365" y="457.726872246696" class="bar-label">28</text>
  <rect x="395" y="477.3568281938326" width="42" height="42.6431718061674" fill="#4A90E2" opacity="0.9" stroke="white" stroke-width="1"/>
  <text x="416" y="545" class="bar-label">2015</text>
  <text x="416" y="469.3568281938326" class="bar-label">22</text>
  <rect x="446" y="508.3700440528634" width="42" height="11.629955947136564" fill="#4A90E2" opacity="0.9" stroke="white" stroke-width="1"/>
  <text x="467" y="545" class="bar-label">2016</text>
  <text x="467" y="500.3700440528634" class="bar-label">6</text>
  <rect x="497" y="520.0" width="42" height="0.0" fill="#95A5A6" opacity="0.9" stroke="white" stroke-width="1"/>
  <text x="518" y="545" class="bar-label">2017</text>
  <text x="518" y="512.0" class="bar-label">0</text>
  <rect x="548" y="475.4185022026432" width="42" height="44.581497797356825" fill="#4A90E2" opacity="0.9" stroke="white" stroke-width="1"/>
  <text x="569" y="545" class="bar-label">2018</text>
  <text x="569" y="467.4185022026432" class="bar-label">23</text>
  <rect x="599" y="498.6784140969163" width="42" height="21.3215859030837" fill="#4A90E2" opacity="0.9" stroke="white" stroke-width="1"/>
  <text x="620" y="545" class="bar-label">2019</text>
  <text x="620" y="490.6784140969163" class="bar-label">11</text>
  <rect x="650" y="496.7400881057269" width="42" height="23.259911894273127" fill="#4A90E2" opacity="0.9" stroke="white" stroke-width="1"/>
  <text x="671" y="545" class="bar-label">2020</text>
  <text x="671" y="488.7400881057269" class="bar-label">12</text>
  <rect x="701" y="506.431718061674" width="42" height="13.568281938325992" fill="#4A90E2" opacity="0.9" stroke="white" stroke-width="1"/>
  <text x="722" y="545" class="bar-label">2021</text>
  <text x="722" y="498.431718061674" class="bar-label">7</text>
  <rect x="752" y="440.52863436123346" width="42" height="79.47136563876651" fill="#4A90E2" opacity="0.9" stroke="white" stroke-width="1"/>
  <text x="773" y="545" class="bar-label">2022</text>
  <text x="773" y="432.52863436123346" class="bar-label">41</text>
  <rect x="803" y="488.9867841409692" width="42" height="31.01321585903084" fill="#4A90E2" opacity="0.9" stroke="white" stroke-width="1"/>
  <text x="824" y="545" class="bar-label">2023</text>
  <text x="824" y="480.9867841409692" class="bar-label">16</text>
  <rect x="854" y="457.9735682819383" width="42" height="62.02643171806168" fill="#4A90E2" opacity="0.9" stroke="white" stroke-width="1"/>
  <text x="875" y="545" class="bar-label">2024</text>
  <text x="875" y="449.9735682819383" class="bar-label">32</text>
</svg>